Coordinates
version=1
nRows=16
nColumns=36
inDegrees=yes

Units are S.I. units (second, meters, Newtons, ...)
If the header above contains a line with 'inDegrees', this indicates whether rotational values are in degrees (yes) or radians (no).

endheader
time	pelvis_tilt	pelvis_list	pelvis_rotation	pelvis_tx	pelvis_ty	pelvis_tz	hip_flexion_r	hip_adduction_r	hip_rotation_r	knee_angle_r	knee_angle_r_beta	ankle_angle_r	subtalar_angle_r	mtp_angle_r	hip_flexion_l	hip_adduction_l	hip_rotation_l	knee_angle_l	knee_angle_l_beta	ankle_angle_l	subtalar_angle_l	mtp_angle_l	lumbar_extension	lumbar_bending	lumbar_rotation	arm_flex_r	arm_add_r	arm_rot_r	elbow_flex_r	pro_sup_r	arm_flex_l	arm_add_l	arm_rot_l	elbow_flex_l	pro_sup_l
      0.88000000	    -16.72516939	     -2.60080932	      4.33921323	     -0.62046337	      1.50970514	     -0.61916868	     18.60396467	     -0.11048258	     -4.30908416	     12.14273666	      0.21193073	    -36.26666787	      1.67532637	     -4.83702101	     21.24113929	     -2.85013131	     -0.47869494	     17.07592778	      0.29803116	    -34.98402246	      1.22366274	     -4.83702101	     -5.92337895	      4.58197797	     -2.64036788	    -39.81716230	    -15.61434364	    -16.36593584	     64.14021298	    113.08922483	    -45.97515940	    -19.92066129	    -14.36325041	     79.63882946	    112.25379489
      0.89000000	    -17.02674398	     -2.78465302	      4.28385988	     -0.61293569	      1.50883105	     -0.61958921	     19.42813003	      0.05956823	     -4.84563584	     11.17860704	      0.19510350	    -35.81111556	      1.93146580	     -4.84765553	     21.92494256	     -3.06421353	     -0.99147010	     15.82895043	      0.27626730	    -33.74987074	      0.97703230	     -4.84765553	     -6.26153947	      4.76760900	     -2.48293279	    -40.25290641	    -15.59888854	    -16.44912319	     63.84488226	    113.11088573	    -46.34263072	    -19.94033683	    -14.66857163	     79.26938563	    112.22748432
      0.90000000	    -17.32874021	     -3.01604812	      4.33581104	     -0.60544557	      1.50699776	     -0.62030058	     20.22602184	      0.19449568	     -5.41603759	     10.20585624	      0.17812579	    -34.95962778	      3.29881676	     -4.89651767	     22.67870541	     -3.27161389	     -1.04863428	     14.79958683	      0.25830152	    -31.27559018	      1.56866491	     -4.89651767	     -6.61462793	      5.02747617	     -2.43348404	    -40.58931381	    -15.55473481	    -16.61262399	     63.42302401	    113.24634362	    -46.59589599	    -19.77068281	    -15.10817286	     78.61346048	    112.28758580
      0.91000000	    -17.66305738	     -3.20043771	      4.37384295	     -0.59800806	      1.50414467	     -0.62110863	     21.08267813	      0.27582698	     -5.96010991	      9.25464420	      0.16152401	    -34.48209005	      3.70302139	     -4.92433985	     23.42785346	     -3.40891958	     -1.17206456	     13.62907452	      0.23787222	    -29.91087712	      1.64969483	     -4.92433985	     -6.88212413	      5.26549903	     -2.39071686	    -40.95052896	    -15.62153380	    -16.69775616	     63.03166375	    113.30278598	    -46.85891144	    -19.72457589	    -15.46664158	     78.04299185	    112.29505022
      0.92000000	    -17.93638361	     -3.35357309	      4.41845564	     -0.59044879	      1.50036383	     -0.62179577	     21.87422844	      0.33881427	     -6.59565043	      8.33105144	      0.14540428	    -34.08233416	      3.69927059	     -4.93451018	     24.15786334	     -3.55471308	     -1.60626570	     12.50864570	      0.21831705	    -29.25162072	      1.56904959	     -4.93451018	     -7.20132384	      5.45047363	     -2.33778586	    -41.36644931	    -15.64384668	    -16.71559410	     62.73293332	    113.31705327	    -47.23938300	    -19.74386115	    -15.67400638	     77.67112234	    112.28382637
      0.93000000	    -18.22056826	     -3.48829896	      4.44015812	     -0.58289983	      1.49562330	     -0.62228005	     22.68885116	      0.40375977	     -7.13943750	      7.43880316	      0.12983161	    -33.65789836	      3.63111573	     -4.94561521	     24.91103408	     -3.70744969	     -1.99881467	     11.42812727	      0.19945845	    -28.85219807	      1.59676743	     -4.94561521	     -7.52345742	      5.58282898	     -2.28016938	    -41.72157000	    -15.63157847	    -16.69444505	     62.38821024	    113.22581007	    -47.60216247	    -19.76263521	    -15.85814597	     77.21518933	    112.17974230
      0.94000000	    -18.51097237	     -3.61509193	      4.44953620	     -0.57523659	      1.48985403	     -0.62282391	     23.50524780	      0.45099040	     -7.60589238	      6.55764912	      0.11445257	    -33.21500712	      3.46311713	     -4.95797076	     25.65489413	     -3.86024829	     -2.37188772	     10.33776855	      0.18042810	    -28.85314834	      1.76832576	     -4.95797076	     -7.80243385	      5.74446676	     -2.23266879	    -42.08477144	    -15.65431090	    -16.64094019	     61.91756250	    113.14885996	    -47.96161849	    -19.74320315	    -16.02233467	     76.68059384	    112.09006405
      0.95000000	    -18.84065159	     -3.71647269	      4.48093744	     -0.56769718	      1.48311011	     -0.62329690	     24.38762880	      0.46196948	     -7.82314364	      5.75976261	      0.10052682	    -33.01322479	      3.00691761	     -5.01784153	     26.44610821	     -3.97462578	     -2.65788891	      9.19024858	      0.16040010	    -29.89909458	      1.92209400	     -5.01784153	     -8.05759770	      5.82122317	     -2.32328171	    -42.19585113	    -15.83313888	    -16.17255176	     61.10243135	    113.33553133	    -48.35451248	    -19.62457434	    -16.29011387	     75.99970255	    112.27406418
      0.96000000	    -19.09726777	     -3.84997539	      4.54648811	     -0.56013105	      1.47533375	     -0.62394320	     25.19854568	      0.46612231	     -8.16677942	      5.00265352	      0.08731278	    -32.83681070	      2.77805361	     -5.03431706	     27.28972184	     -4.10198971	     -3.08924516	      8.38571712	      0.14635837	    -30.33768379	      1.94366586	     -5.03431706	     -8.37018051	      5.99446888	     -2.32325255	    -42.56851816	    -15.85934368	    -16.10283812	     60.70869820	    113.29867202	    -48.73722361	    -19.59633173	    -16.41817105	     75.65508634	    112.23931755
      0.97000000	    -19.50538020	     -3.95845275	      4.58302768	     -0.55267977	      1.46644029	     -0.62440607	     26.20996605	      0.44358849	     -8.32014161	      4.30395216	      0.07511814	    -33.23097052	      2.38446216	     -5.07067863	     28.33987174	     -4.20941937	     -3.54841594	      7.67653667	      0.13398084	    -31.37989043	      1.89941377	     -5.07067863	     -8.51509470	      6.05933722	     -2.36653757	    -42.81887854	    -15.94402384	    -15.82388467	     60.06710028	    113.37522679	    -49.16148968	    -19.56213411	    -16.53464733	     75.17745742	    112.33287876
      0.98000000	    -19.66531238	     -4.03024604	      4.60029469	     -0.54510811	      1.45689394	     -0.62495461	     26.99179085	      0.38949043	     -8.62903657	      3.72151015	      0.06495261	    -33.16505952	      2.22612520	     -5.07917844	     29.11052338	     -4.28349251	     -3.90553854	      7.12586301	      0.12436977	    -31.37824514	      1.81818250	     -5.07917844	     -8.99534573	      6.12236329	     -2.31415220	    -43.16899391	    -15.90899576	    -15.76474081	     59.84941043	    113.30386612	    -49.57275471	    -19.60456887	    -16.61340322	     74.97634232	    112.26681533
      0.99000000	    -20.23203768	     -4.16204937	      4.59995588	     -0.53765446	      1.44570849	     -0.62552415	     28.16607161	      0.37623965	     -8.36884107	      3.03240979	      0.05292554	    -34.40230013	      1.02090471	     -5.23426947	     30.37259927	     -4.36215277	     -4.00765681	      6.64892196	      0.11604558	    -31.99398811	      1.52307478	     -5.23426947	     -8.88389303	      6.22983634	     -2.41162332	    -43.54627996	    -16.10063616	    -15.22982083	     59.24277880	    113.06755626	    -50.17020291	    -19.48352963	    -16.67889127	     74.61586193	    112.09486757
      1.00000000	    -20.63839166	     -4.22230480	      4.59651639	     -0.53016006	      1.43372829	     -0.62604955	     29.24424789	      0.26323788	     -8.32103891	      2.58274472	      0.04507740	    -34.48647292	      1.01319614	     -5.58532770	     31.48394862	     -4.42996780	     -4.20976729	      6.34381354	      0.11072043	    -31.64440533	      1.76094792	     -5.58532770	     -9.01453949	      6.28642270	     -2.41440090	    -43.97061039	    -16.09349665	    -15.16335822	     58.85382034	    113.98588714	    -50.67202570	    -19.39751318	    -16.84581981	     74.27390621	    113.15108775
      1.01000000	    -21.03390465	     -4.27673442	      4.59360873	     -0.52266624	      1.42073578	     -0.62654224	     30.36227541	      0.12564329	     -8.32809932	      2.27844620	      0.03976639	    -34.48350550	      1.22631305	     -5.83596987	     32.56282766	     -4.50536960	     -4.11522207	      6.05329304	      0.10564989	    -31.17616663	      1.95009660	     -5.83596987	     -9.15455244	      6.31790920	     -2.40622035	    -44.39390191	    -16.08580550	    -15.00414216	     58.50257406	    113.93684285	    -51.20296476	    -19.36968604	    -16.80147616	     74.06300186	    113.26341121
      1.02000000	    -21.40986930	     -4.30024145	      4.56197688	     -0.51510250	      1.40680750	     -0.62704433	     31.49990624	     -0.05949523	     -8.42176103	      2.10649092	      0.03676520	    -34.12757026	      1.94662694	     -5.98721227	     33.59586691	     -4.59043307	     -4.07595403	      5.75629856	      0.10046636	    -30.67061364	      2.58715721	     -5.98721227	     -9.31931833	      6.31219490	     -2.33644282	    -44.88525862	    -16.01161181	    -14.74554478	     58.39066001	    111.38722625	    -51.75447695	    -19.35924272	    -16.39464880	     74.18575816	    110.72935235
      1.03000000	    -21.83065241	     -4.33852833	      4.54245404	     -0.50762754	      1.39172566	     -0.62760334	     32.70091582	     -0.21884004	     -8.17549203	      2.01857555	      0.03523079	    -34.01182609	      1.44480852	     -6.15138647	     34.69116297	     -4.62111210	     -3.56761542	      5.54260120	      0.09673664	    -30.29947910	      2.23345908	     -6.15138647	     -9.41899432	      6.31798682	     -2.32170508	    -45.37255149	    -15.98271963	    -14.66733156	     57.93802010	    113.27336227	    -52.33811054	    -19.25288128	    -16.30736480	     73.91513280	    112.36454432
